<svg width="320" height="320" viewBox="0 0 320 320" fill="none" xmlns="http://www.w3.org/2000/svg">
<g clip-path="url(#clip0_401_122)">
<circle cx="160" cy="160" r="160" fill="white"/>
<g clip-path="url(#clip1_401_122)">
<path d="M240.453 155.287C235.896 136.599 218.932 115.989 191.337 109.566C174.218 105.585 162.705 99.2554 163.992 86.5858C165.954 67.3683 182.658 67.5242 194.431 68.4804C197.753 68.7506 198.137 64.1983 195.366 62.5249C172.578 48.8471 139.636 52.7966 131.632 82.7506C130.822 85.7959 121.811 115.241 155.77 134.801C166.369 140.902 182.824 139.249 187.008 158.353C188.503 165.202 187.091 179.254 176.128 186.218C169.006 190.739 155.033 190.853 144.651 186.259C133.21 181.198 130.687 168.382 133.812 158.81C136.522 150.506 134.923 143.552 130.864 140.403C125.403 136.173 118.447 130.987 105.657 130.581C95.0989 130.238 90.5829 133.169 85.7969 142.014C64.3482 181.644 87.5721 237.26 149.769 242.28C150.465 242.332 151.119 242.394 151.866 242.477C190.849 246.978 217.375 231.128 230.663 210.32C242.841 191.258 243.526 167.894 240.453 155.287Z" fill="#050505"/>
<path d="M157.96 233.321C157.96 233.321 165.528 240.43 164.189 253.63C163.213 263.254 173.72 267.578 178.329 263.42C187.974 254.7 180.353 238.206 180.353 238.206L157.97 233.331L157.96 233.321Z" fill="#050505"/>
<path d="M165.429 223.608C165.815 218.848 163.153 214.747 159.484 214.449C155.815 214.151 152.528 217.768 152.142 222.529C151.757 227.289 154.418 231.389 158.087 231.687C161.756 231.985 165.043 228.368 165.429 223.608Z" fill="white"/>
<path d="M196.338 218.845C196.724 214.085 194.062 209.984 190.393 209.686C186.724 209.388 183.437 213.005 183.051 217.765C182.665 222.525 185.327 226.626 188.996 226.924C192.665 227.222 195.952 223.605 196.338 218.845Z" fill="white"/>
</g>
</g>
<defs>
<clipPath id="clip0_401_122">
<rect width="320" height="320" rx="160" fill="white"/>
</clipPath>
<clipPath id="clip1_401_122">
<rect width="164" height="210" fill="white" transform="translate(78 55)"/>
</clipPath>
</defs>
</svg>
